<?xml version="1.0" encoding="UTF-8"?><svg id="Layer_1" xmlns="http://www.w3.org/2000/svg" width="493" height="493" viewBox="0 0 493 493"><defs><style>.cls-1{fill:#f1412b;}.cls-2{fill:#ffc8a8;}</style></defs><circle class="cls-1" cx="246.5" cy="246.5" r="246.5"/><path class="cls-2" d="m116.79,86.95h217.8v51.75h-153v92.25h139.05v49.5h-139.05v134.1h-64.8V86.95Z"/><path class="cls-2" d="m199.95,301.01h16.32l44.64,58.92v-58.92h15.48v87.36h-14.76l-46.2-60.84v60.84h-15.48v-87.36Z"/><path class="cls-2" d="m289.95,344.69c0-26.64,19.2-45.12,46.2-45.12s46.2,18.48,46.2,45.12-19.32,45.12-46.2,45.12-46.2-18.48-46.2-45.12Zm46.2,31.44c16.56,0,27.84-13.32,27.84-31.44s-11.28-31.44-27.84-31.44-27.84,13.32-27.84,31.44,11.16,31.44,27.84,31.44Z"/><path class="cls-2" d="m395.91,301.01h17.28v87.36h-17.28v-87.36Z"/></svg>